<?xml version="1.0" encoding="UTF-8" standalone="no"?>
<!DOCTYPE svg PUBLIC "-//W3C//DTD SVG 1.1//EN"
 "http://www.w3.org/Graphics/SVG/1.1/DTD/svg11.dtd">
<!-- Generated by graphviz version 7.0.2 (20221119.0110)
 -->
<!-- Pages: 1 -->
<svg width="194pt" height="188pt"
 viewBox="0.00 0.00 193.84 188.00" xmlns="http://www.w3.org/2000/svg" xmlns:xlink="http://www.w3.org/1999/xlink">
<g id="graph0" class="graph" transform="scale(1 1) rotate(0) translate(4 184)">
<polygon fill="white" stroke="none" points="-4,4 -4,-184 189.84,-184 189.84,4 -4,4"/>
<!-- 0 -->
<g id="node1" class="node">
<title>0</title>
<ellipse fill="none" stroke="black" cx="116.3" cy="-162" rx="36" ry="18"/>
<text text-anchor="middle" x="116.3" y="-158.3" font-family="Times,serif" font-size="14.00">0,2,4,6</text>
</g>
<!-- 8 -->
<g id="node2" class="node">
<title>8</title>
<ellipse fill="none" stroke="black" cx="78.3" cy="-90" rx="48.99" ry="18"/>
<text text-anchor="middle" x="78.3" y="-86.3" font-family="Times,serif" font-size="14.00">8,10,12,14</text>
</g>
<!-- 0&#45;&gt;8 -->
<g id="edge2" class="edge">
<title>0&#45;&gt;8</title>
<path fill="none" stroke="black" d="M107.29,-144.41C103,-136.51 97.76,-126.85 92.92,-117.94"/>
<polygon fill="black" stroke="black" points="96.07,-116.41 88.22,-109.29 89.92,-119.74 96.07,-116.41"/>
</g>
<!-- 24 -->
<g id="node4" class="node">
<title>24</title>
<ellipse fill="none" stroke="black" cx="155.3" cy="-18" rx="30.59" ry="18"/>
<text text-anchor="middle" x="155.3" y="-14.3" font-family="Times,serif" font-size="14.00">24,26</text>
</g>
<!-- 0&#45;&gt;24 -->
<g id="edge1" class="edge">
<title>0&#45;&gt;24</title>
<path fill="none" stroke="black" d="M123.44,-144.04C127.59,-133.74 132.69,-120.27 136.3,-108 142.15,-88.05 147.01,-65.08 150.35,-47.48"/>
<polygon fill="black" stroke="black" points="153.77,-48.21 152.13,-37.74 146.89,-46.95 153.77,-48.21"/>
</g>
<!-- 16 -->
<g id="node3" class="node">
<title>16</title>
<ellipse fill="none" stroke="black" cx="53.3" cy="-18" rx="53.09" ry="18"/>
<text text-anchor="middle" x="53.3" y="-14.3" font-family="Times,serif" font-size="14.00">16,18,20,22</text>
</g>
<!-- 8&#45;&gt;16 -->
<g id="edge4" class="edge">
<title>8&#45;&gt;16</title>
<path fill="none" stroke="black" d="M72.12,-71.7C69.42,-64.15 66.19,-55.12 63.18,-46.68"/>
<polygon fill="black" stroke="black" points="66.57,-45.77 59.91,-37.53 59.98,-48.12 66.57,-45.77"/>
</g>
<!-- 8&#45;&gt;24 -->
<g id="edge3" class="edge">
<title>8&#45;&gt;24</title>
<path fill="none" stroke="black" d="M96.15,-72.76C106.39,-63.46 119.39,-51.64 130.59,-41.46"/>
<polygon fill="black" stroke="black" points="132.94,-44.05 137.99,-34.74 128.23,-38.87 132.94,-44.05"/>
</g>
</g>
</svg>
