<?xml version="1.0" encoding="UTF-8" standalone="no"?>
<!DOCTYPE svg PUBLIC "-//W3C//DTD SVG 1.1//EN"
 "http://www.w3.org/Graphics/SVG/1.1/DTD/svg11.dtd">
<!-- Generated by graphviz version 7.0.2 (20221119.0110)
 -->
<!-- Pages: 1 -->
<svg width="341pt" height="332pt"
 viewBox="0.00 0.00 341.09 332.00" xmlns="http://www.w3.org/2000/svg" xmlns:xlink="http://www.w3.org/1999/xlink">
<g id="graph0" class="graph" transform="scale(1 1) rotate(0) translate(4 328)">
<polygon fill="white" stroke="none" points="-4,4 -4,-328 337.09,-328 337.09,4 -4,4"/>
<!-- 0 -->
<g id="node1" class="node">
<title>0</title>
<ellipse fill="none" stroke="black" cx="130.55" cy="-306" rx="36" ry="18"/>
<text text-anchor="middle" x="130.55" y="-302.3" font-family="Times,serif" font-size="14.00">0,2,4,6</text>
</g>
<!-- 8 -->
<g id="node2" class="node">
<title>8</title>
<ellipse fill="none" stroke="black" cx="158.55" cy="-234" rx="27" ry="18"/>
<text text-anchor="middle" x="158.55" y="-230.3" font-family="Times,serif" font-size="14.00">8,10</text>
</g>
<!-- 0&#45;&gt;8 -->
<g id="edge2" class="edge">
<title>0&#45;&gt;8</title>
<path fill="none" stroke="black" d="M137.33,-288.05C140.42,-280.32 144.16,-270.96 147.64,-262.27"/>
<polygon fill="black" stroke="black" points="150.81,-263.78 151.27,-253.19 144.31,-261.18 150.81,-263.78"/>
</g>
<!-- 12 -->
<g id="node3" class="node">
<title>12</title>
<ellipse fill="none" stroke="black" cx="103.55" cy="-162" rx="53.09" ry="18"/>
<text text-anchor="middle" x="103.55" y="-158.3" font-family="Times,serif" font-size="14.00">12,14,16,18</text>
</g>
<!-- 0&#45;&gt;12 -->
<g id="edge1" class="edge">
<title>0&#45;&gt;12</title>
<path fill="none" stroke="black" d="M127.24,-287.59C122.68,-263.61 114.41,-220.14 108.95,-191.42"/>
<polygon fill="black" stroke="black" points="112.39,-190.77 107.08,-181.6 105.51,-192.08 112.39,-190.77"/>
</g>
<!-- 8&#45;&gt;12 -->
<g id="edge4" class="edge">
<title>8&#45;&gt;12</title>
<path fill="none" stroke="black" d="M146.34,-217.46C139.63,-208.92 131.13,-198.1 123.48,-188.36"/>
<polygon fill="black" stroke="black" points="126.35,-186.36 117.42,-180.66 120.85,-190.68 126.35,-186.36"/>
</g>
<!-- 28 -->
<g id="node6" class="node">
<title>28</title>
<ellipse fill="none" stroke="black" cx="228.55" cy="-162" rx="53.09" ry="18"/>
<text text-anchor="middle" x="228.55" y="-158.3" font-family="Times,serif" font-size="14.00">28,30,32,34</text>
</g>
<!-- 8&#45;&gt;28 -->
<g id="edge3" class="edge">
<title>8&#45;&gt;28</title>
<path fill="none" stroke="black" d="M173.05,-218.5C182.03,-209.52 193.77,-197.77 204.15,-187.4"/>
<polygon fill="black" stroke="black" points="206.43,-190.06 211.03,-180.52 201.48,-185.11 206.43,-190.06"/>
</g>
<!-- 20 -->
<g id="node4" class="node">
<title>20</title>
<ellipse fill="none" stroke="black" cx="30.55" cy="-90" rx="30.59" ry="18"/>
<text text-anchor="middle" x="30.55" y="-86.3" font-family="Times,serif" font-size="14.00">20,22</text>
</g>
<!-- 12&#45;&gt;20 -->
<g id="edge5" class="edge">
<title>12&#45;&gt;20</title>
<path fill="none" stroke="black" d="M86.62,-144.76C76.91,-135.46 64.59,-123.64 53.97,-113.46"/>
<polygon fill="black" stroke="black" points="56.63,-111.16 46.99,-106.76 51.78,-116.21 56.63,-111.16"/>
</g>
<!-- 24 -->
<g id="node5" class="node">
<title>24</title>
<ellipse fill="none" stroke="black" cx="109.55" cy="-90" rx="30.59" ry="18"/>
<text text-anchor="middle" x="109.55" y="-86.3" font-family="Times,serif" font-size="14.00">24,26</text>
</g>
<!-- 12&#45;&gt;24 -->
<g id="edge6" class="edge">
<title>12&#45;&gt;24</title>
<path fill="none" stroke="black" d="M105.03,-143.7C105.66,-136.41 106.4,-127.73 107.1,-119.54"/>
<polygon fill="black" stroke="black" points="110.59,-119.87 107.95,-109.61 103.61,-119.28 110.59,-119.87"/>
</g>
<!-- 36 -->
<g id="node7" class="node">
<title>36</title>
<ellipse fill="none" stroke="black" cx="222.55" cy="-90" rx="53.09" ry="18"/>
<text text-anchor="middle" x="222.55" y="-86.3" font-family="Times,serif" font-size="14.00">36,38,40,42</text>
</g>
<!-- 28&#45;&gt;36 -->
<g id="edge7" class="edge">
<title>28&#45;&gt;36</title>
<path fill="none" stroke="black" d="M227.06,-143.7C226.44,-136.41 225.7,-127.73 224.99,-119.54"/>
<polygon fill="black" stroke="black" points="228.48,-119.28 224.14,-109.61 221.51,-119.87 228.48,-119.28"/>
</g>
<!-- 48 -->
<g id="node9" class="node">
<title>48</title>
<ellipse fill="none" stroke="black" cx="302.55" cy="-18" rx="30.59" ry="18"/>
<text text-anchor="middle" x="302.55" y="-14.3" font-family="Times,serif" font-size="14.00">48,50</text>
</g>
<!-- 28&#45;&gt;48 -->
<g id="edge8" class="edge">
<title>28&#45;&gt;48</title>
<path fill="none" stroke="black" d="M250.88,-145.29C262.68,-135.82 276.37,-122.75 284.55,-108 294.78,-89.54 299.23,-66.04 301.15,-47.83"/>
<polygon fill="black" stroke="black" points="304.63,-48.23 301.98,-37.97 297.66,-47.64 304.63,-48.23"/>
</g>
<!-- 44 -->
<g id="node8" class="node">
<title>44</title>
<ellipse fill="none" stroke="black" cx="222.55" cy="-18" rx="30.59" ry="18"/>
<text text-anchor="middle" x="222.55" y="-14.3" font-family="Times,serif" font-size="14.00">44,46</text>
</g>
<!-- 36&#45;&gt;44 -->
<g id="edge10" class="edge">
<title>36&#45;&gt;44</title>
<path fill="none" stroke="black" d="M222.55,-71.7C222.55,-64.41 222.55,-55.73 222.55,-47.54"/>
<polygon fill="black" stroke="black" points="226.05,-47.62 222.55,-37.62 219.05,-47.62 226.05,-47.62"/>
</g>
<!-- 36&#45;&gt;48 -->
<g id="edge9" class="edge">
<title>36&#45;&gt;48</title>
<path fill="none" stroke="black" d="M241.1,-72.76C251.92,-63.3 265.7,-51.24 277.47,-40.94"/>
<polygon fill="black" stroke="black" points="279.64,-43.7 284.86,-34.48 275.03,-38.43 279.64,-43.7"/>
</g>
</g>
</svg>
