<?xml version="1.0" encoding="UTF-8" standalone="no"?>
<!DOCTYPE svg PUBLIC "-//W3C//DTD SVG 1.1//EN"
 "http://www.w3.org/Graphics/SVG/1.1/DTD/svg11.dtd">
<!-- Generated by graphviz version 7.0.2 (20221119.0110)
 -->
<!-- Pages: 1 -->
<svg width="303pt" height="260pt"
 viewBox="0.00 0.00 302.59 260.00" xmlns="http://www.w3.org/2000/svg" xmlns:xlink="http://www.w3.org/1999/xlink">
<g id="graph0" class="graph" transform="scale(1 1) rotate(0) translate(4 256)">
<polygon fill="white" stroke="none" points="-4,4 -4,-256 298.59,-256 298.59,4 -4,4"/>
<!-- 0 -->
<g id="node1" class="node">
<title>0</title>
<ellipse fill="none" stroke="black" cx="139.3" cy="-234" rx="36" ry="18"/>
<text text-anchor="middle" x="139.3" y="-230.3" font-family="Times,serif" font-size="14.00">0,2,4,6</text>
</g>
<!-- 8 -->
<g id="node2" class="node">
<title>8</title>
<ellipse fill="none" stroke="black" cx="101.3" cy="-162" rx="48.99" ry="18"/>
<text text-anchor="middle" x="101.3" y="-158.3" font-family="Times,serif" font-size="14.00">8,10,12,14</text>
</g>
<!-- 0&#45;&gt;8 -->
<g id="edge2" class="edge">
<title>0&#45;&gt;8</title>
<path fill="none" stroke="black" d="M130.29,-216.41C126,-208.51 120.76,-198.85 115.92,-189.94"/>
<polygon fill="black" stroke="black" points="119.07,-188.41 111.22,-181.29 112.92,-191.74 119.07,-188.41"/>
</g>
<!-- 24 -->
<g id="node4" class="node">
<title>24</title>
<ellipse fill="none" stroke="black" cx="178.3" cy="-90" rx="53.09" ry="18"/>
<text text-anchor="middle" x="178.3" y="-86.3" font-family="Times,serif" font-size="14.00">24,26,28,30</text>
</g>
<!-- 0&#45;&gt;24 -->
<g id="edge1" class="edge">
<title>0&#45;&gt;24</title>
<path fill="none" stroke="black" d="M146.44,-216.04C150.59,-205.74 155.69,-192.27 159.3,-180 165.15,-160.05 170.01,-137.08 173.35,-119.48"/>
<polygon fill="black" stroke="black" points="176.77,-120.21 175.13,-109.74 169.89,-118.95 176.77,-120.21"/>
</g>
<!-- 16 -->
<g id="node3" class="node">
<title>16</title>
<ellipse fill="none" stroke="black" cx="53.3" cy="-90" rx="53.09" ry="18"/>
<text text-anchor="middle" x="53.3" y="-86.3" font-family="Times,serif" font-size="14.00">16,18,20,22</text>
</g>
<!-- 8&#45;&gt;16 -->
<g id="edge4" class="edge">
<title>8&#45;&gt;16</title>
<path fill="none" stroke="black" d="M89.68,-144.05C84.13,-135.97 77.38,-126.12 71.2,-117.11"/>
<polygon fill="black" stroke="black" points="74.21,-115.31 65.66,-109.04 68.43,-119.26 74.21,-115.31"/>
</g>
<!-- 8&#45;&gt;24 -->
<g id="edge3" class="edge">
<title>8&#45;&gt;24</title>
<path fill="none" stroke="black" d="M119.15,-144.76C128.9,-135.91 141.15,-124.77 151.97,-114.93"/>
<polygon fill="black" stroke="black" points="154.1,-117.72 159.15,-108.41 149.39,-112.54 154.1,-117.72"/>
</g>
<!-- 32 -->
<g id="node5" class="node">
<title>32</title>
<ellipse fill="none" stroke="black" cx="116.3" cy="-18" rx="53.09" ry="18"/>
<text text-anchor="middle" x="116.3" y="-14.3" font-family="Times,serif" font-size="14.00">32,34,36,38</text>
</g>
<!-- 24&#45;&gt;32 -->
<g id="edge5" class="edge">
<title>24&#45;&gt;32</title>
<path fill="none" stroke="black" d="M163.6,-72.41C156.11,-63.95 146.85,-53.49 138.51,-44.08"/>
<polygon fill="black" stroke="black" points="141.14,-41.77 131.89,-36.6 135.9,-46.41 141.14,-41.77"/>
</g>
<!-- 40 -->
<g id="node6" class="node">
<title>40</title>
<ellipse fill="none" stroke="black" cx="241.3" cy="-18" rx="53.09" ry="18"/>
<text text-anchor="middle" x="241.3" y="-14.3" font-family="Times,serif" font-size="14.00">40,42,44,46</text>
</g>
<!-- 24&#45;&gt;40 -->
<g id="edge6" class="edge">
<title>24&#45;&gt;40</title>
<path fill="none" stroke="black" d="M193.23,-72.41C200.91,-63.87 210.44,-53.28 218.99,-43.79"/>
<polygon fill="black" stroke="black" points="221.37,-46.37 225.46,-36.59 216.17,-41.69 221.37,-46.37"/>
</g>
</g>
</svg>
